<?xml version="1.0" encoding="utf-8"?>
<!-- Generator: Adobe Illustrator 17.1.0, SVG Export Plug-In . SVG Version: 6.00 Build 0)  -->
<!DOCTYPE svg PUBLIC "-//W3C//DTD SVG 1.1//EN" "http://www.w3.org/Graphics/SVG/1.1/DTD/svg11.dtd">
<svg version="1.1" id="レイヤー_1" xmlns="http://www.w3.org/2000/svg" xmlns:xlink="http://www.w3.org/1999/xlink" x="0px"
	 y="0px" viewBox="0 0 800 450" enable-background="new 0 0 800 450" xml:space="preserve">
<g opacity="0.4">
	<polygon fill="#B1523D" points="51.279,170.957 137.469,-30.058 241.003,117.814 	"/>
	<path fill="#EC6D51" d="M255.558,294.907L-197.317-22.296l107.383-153.355c2.302-3.286,6.829-4.085,10.112-1.783l458.315,320.917
		L255.558,294.907z"/>
	<path fill="#E6E6E6" d="M661.514-16.991L218.365,293.306c-1.365,0.955-3.188,0.926-4.52-0.076L51.279,170.957L555.01-181.758
		L663.3-27.103C665.599-23.821,664.8-19.29,661.514-16.991z"/>
	<polygon fill="#B1523D" points="139.796,-23.657 64.938,161.394 178.216,82.073 	"/>
	<polygon fill="#CCCCCC" points="247.553,272.868 178.216,82.073 166.667,90.163 	"/>
	<path fill="#F2F2F2" d="M255.558,294.907L137.469-30.058l193.362-28.788c1.706-0.254,3.358,0.73,3.947,2.353l79.76,219.485
		c0.53,1.456,0.076,3.086-1.126,4.063L255.558,294.907z"/>
	<polygon fill="#B1523D" points="255.558,294.907 235.822,281.081 247.553,272.868 	"/>
	<polygon fill="#CCCCCC" points="348.632,-37.251 412.497,157.375 343.164,-33.424 	"/>
</g>
<g>
	<g>
		<g>
			<line fill="none" stroke="#534741" stroke-width="5" stroke-miterlimit="10" x1="550" y1="260.5" x2="624" y2="260.5"/>
			<g>
				<polygon fill="#534741" points="552,259.782 539.558,252 524.013,252 532.611,260.5 524.013,269 539.558,269 552,261.558 				
					"/>
			</g>
			<g>
				<polygon fill="#534741" points="618.43,268.075 621.576,260.669 618.43,253.263 635.987,260.669 				"/>
			</g>
		</g>
	</g>
	<g>
		<polygon fill="#F7C5B9" points="612.909,272.495 601.315,271.054 607.367,263.547 		"/>
		<path fill="#FBE2DC" d="M616.24,260.172l-9.56,27.947l-9.463-3.236c-0.203-0.069-0.311-0.29-0.242-0.492l9.67-28.282
			L616.24,260.172z"/>
		<path fill="#E6E6E6" d="M594.21,243.966l22.499,18.139c0.069,0.056,0.095,0.15,0.063,0.233l-3.863,10.157l-25.575-20.618
			l6.33-7.852C593.799,243.858,594.044,243.832,594.21,243.966z"/>
		<polygon fill="#F7C5B9" points="601.609,270.839 612.216,271.936 606.465,267.299 		"/>
		<polygon fill="#CCCCCC" points="615.227,260.91 606.465,267.299 607.051,267.772 		"/>
		<path fill="#F2F2F2" d="M616.24,260.172l-14.925,10.881l-4.346-9.496c-0.038-0.084-0.012-0.183,0.062-0.237l10.081-7.35
			c0.067-0.049,0.157-0.05,0.225-0.003L616.24,260.172z"/>
		<polygon fill="#F7C5B9" points="616.24,260.172 615.823,261.39 615.227,260.91 		"/>
		<polygon fill="#CCCCCC" points="597.813,260.324 606.853,254.159 598.09,260.548 		"/>
	</g>
</g>
<g>
</g>
<g>
</g>
<g>
</g>
<g>
</g>
<g>
</g>
<g>
</g>
<g>
</g>
<g>
</g>
<g>
</g>
<g>
</g>
<g>
</g>
<g>
</g>
<g>
</g>
<g>
</g>
<g>
</g>
<g>
</g>
<g>
</g>
</svg>
